<svg xmlns="http://www.w3.org/2000/svg" width="1024" height="1024" viewBox="0 0 1024 1024" version="1.1"><path d="M 0 556.053 C -0 853.322, -0.499 830.376, 6.261 844 C 10.878 853.307, 22.238 864.445, 32 869.237 C 47.112 876.656, 1.463 876.039, 514.679 875.755 L 976.500 875.500 984.695 872.340 C 1003.895 864.936, 1017.107 851.065, 1022.719 832.419 C 1024.408 826.806, 1024.500 812.531, 1024.507 556 C 1024.512 347.763, 1024.396 321.419, 1024.007 441.548 L 1023.500 597.596 1019.500 604.548 C 1015.187 612.045, 998.661 629.653, 993.466 632.289 C 983.220 637.486, 947.012 639.511, 916.500 636.594 C 885.400 633.620, 836.784 625.322, 801 616.881 C 760.709 607.376, 755.268 606.224, 744.385 604.892 C 729.679 603.093, 683.036 603.051, 673 604.828 C 626.382 613.083, 586.480 635.694, 543.874 677.999 C 522.036 699.683, 518.824 704.445, 499.351 744 C 483.389 776.425, 477.159 786.689, 468.353 795.070 C 458.316 804.622, 448.158 809.001, 436.040 808.999 C 424.172 808.998, 412.309 800.121, 400.799 782.633 C 388.797 764.397, 377.400 739.274, 351.532 674.034 C 308.683 565.968, 279.322 508.345, 241.200 457.500 C 219.392 428.413, 192.364 400.855, 166.484 381.318 C 129.403 353.325, 79.223 328.027, 36 315.536 C 30.775 314.026, 24.662 311.738, 22.416 310.451 C 17.095 307.402, 8 298.406, 3.537 291.778 L 0 286.527 0 556.053 M 0.493 557 C 0.493 705.775, 0.608 766.638, 0.750 692.250 C 0.891 617.863, 0.891 496.138, 0.750 421.750 C 0.608 347.363, 0.493 408.225, 0.493 557" stroke="none" fill="#9c9c9b" fill-rule="evenodd"/><path d="M 45 151.576 C 24.119 157.060, 6.636 173.941, 1.528 193.552 C 0.052 199.222, -0.537 207, 0.511 207 C 0.792 207, 15.980 209.957, 34.261 213.571 C 150.243 236.498, 200.921 254.119, 255.500 290.498 C 272.233 301.651, 286.922 313.239, 300.485 325.985 C 353.157 375.487, 386.781 432.948, 415.480 522.500 C 433.290 578.072, 437.226 588.362, 443.554 595.882 C 447.638 600.735, 451.480 602.333, 457.557 601.706 C 469.384 600.486, 477.528 593.034, 495.797 566.716 C 510.760 545.161, 517.829 536.285, 528.357 525.827 C 547.439 506.872, 570.228 493.526, 596.341 486.012 C 627.606 477.016, 664.356 472.947, 696 474.979 C 728.553 477.068, 748.283 480.808, 815 497.535 C 909.535 521.236, 935.753 525.489, 994.750 526.693 L 1024 527.289 1024.007 368.895 C 1024.011 281.778, 1024.308 207.392, 1024.666 203.593 C 1025.106 198.934, 1024.982 196.893, 1024.284 197.324 C 1023.673 197.702, 1023.003 196.436, 1022.646 194.232 C 1020.521 181.084, 1005.880 163.147, 991.887 156.547 C 987.824 154.631, 981.818 152.374, 978.540 151.532 C 973.228 150.166, 922.461 150.007, 511.540 150.066 C 112.959 150.123, 49.755 150.327, 45 151.576 M 558 294.611 C 536.887 297.226, 517.044 304.753, 497 317.749 C 485.457 325.234, 478.426 331.494, 471.056 340.851 C 459.796 355.146, 452.858 368.436, 446.704 387.500 C 440.088 407.994, 437.021 429.279, 437.008 454.789 C 436.992 486.007, 441.580 511.016, 450.021 525.734 C 454.023 532.712, 456.774 534.440, 462.612 533.640 C 472.072 532.343, 475.646 527.207, 481.471 506.534 C 486.657 488.130, 490.239 479.506, 496.893 469.407 C 512.485 445.745, 543.945 425.056, 581.133 414.009 C 612.099 404.809, 634.839 404.397, 691.458 412.011 C 760.505 421.296, 794.595 422.031, 847.447 415.375 C 881.742 411.057, 902.543 404.248, 920.628 391.420 C 933.947 381.972, 945.219 365.886, 948.044 352.294 C 949.340 346.062, 948.832 333.981, 947.014 327.781 C 942.462 312.260, 923.376 308.739, 880.500 315.510 C 840.294 321.859, 813.813 324.106, 779 324.120 C 731.149 324.140, 701.919 320.193, 637.619 305.026 C 623.384 301.668, 606.509 298.018, 600.119 296.915 C 588.988 294.992, 565.355 293.700, 558 294.611" stroke="none" fill="#f48c04" fill-rule="evenodd"/></svg>